REM DIRINDEX 1\2,1\3\7,1\3\8,1\4\9,1\4\10,1\4\11,1\5\12,1\5\13,1\5\14,1\6\15,1\6\16,1\6\17
REM DIRNAME "folder01","folder02","folder03","folder04","folder05","folder06","folder07","folder08","folder09","folder10","folder11","folder12","folder13","folder14","folder15","folder16","folder17"
TITLE ""
FILE "2Q_e_021-029.mp3" MP3
  TRACK 01 AUDIO
    TITLE "0:"
    INDEX 01 00:00:00
  TRACK 02 AUDIO
    TITLE "15:cjc174_0062"
    INDEX 01 00:00:24
  TRACK 03 AUDIO
    TITLE "0:"
    INDEX 01 00:02:35
  TRACK 04 AUDIO
    TITLE "16:cjc174_0063"
    INDEX 01 00:03:07
  TRACK 05 AUDIO
    TITLE "0:"
    INDEX 01 00:05:31
  TRACK 06 AUDIO
    TITLE "17:cjc174_0064"
    INDEX 01 00:06:01
  TRACK 07 AUDIO
    TITLE "0:"
    INDEX 01 00:11:47
  TRACK 08 AUDIO
    TITLE "15:cjc174_0065"
    INDEX 01 00:12:21
  TRACK 09 AUDIO
    TITLE "0:"
    INDEX 01 00:13:42
  TRACK 10 AUDIO
    TITLE "16:cjc174_0066"
    INDEX 01 00:14:14
  TRACK 11 AUDIO
    TITLE "0:"
    INDEX 01 00:16:07
  TRACK 12 AUDIO
    TITLE "17:cjc174_0067"
    INDEX 01 00:16:52
  TRACK 13 AUDIO
    TITLE "0:"
    INDEX 01 00:21:71
  TRACK 14 AUDIO
    TITLE "15:cjc174_0068"
    INDEX 01 00:22:43
  TRACK 15 AUDIO
    TITLE "0:"
    INDEX 01 00:24:03
  TRACK 16 AUDIO
    TITLE "16:cjc174_0069"
    INDEX 01 00:24:50
  TRACK 17 AUDIO
    TITLE "0:"
    INDEX 01 00:27:09
  TRACK 18 AUDIO
    TITLE "17:cjc174_0070"
    INDEX 01 00:27:52
  TRACK 19 AUDIO
    TITLE "0:"
    INDEX 01 00:32:53
  TRACK 20 AUDIO
    TITLE "15:cjc174_0071"
    INDEX 01 00:33:23
  TRACK 21 AUDIO
    TITLE "0:"
    INDEX 01 00:35:09
  TRACK 22 AUDIO
    TITLE "16:cjc174_0072"
    INDEX 01 00:35:56
  TRACK 23 AUDIO
    TITLE "0:"
    INDEX 01 00:38:52
  TRACK 24 AUDIO
    TITLE "17:cjc174_0073"
    INDEX 01 00:39:24
  TRACK 25 AUDIO
    TITLE "0:"
    INDEX 01 00:43:63
  TRACK 26 AUDIO
    TITLE "15:cjc174_0074"
    INDEX 01 00:44:33
  TRACK 27 AUDIO
    TITLE "0:"
    INDEX 01 00:46:32
  TRACK 28 AUDIO
    TITLE "16:cjc174_0075"
    INDEX 01 00:47:04
  TRACK 29 AUDIO
    TITLE "0:"
    INDEX 01 00:49:60
  TRACK 30 AUDIO
    TITLE "17:cjc174_0076"
    INDEX 01 00:50:30
  TRACK 31 AUDIO
    TITLE "0:"
    INDEX 01 00:56:09
  TRACK 32 AUDIO
    TITLE "15:cjc174_0077"
    INDEX 01 00:56:54
  TRACK 33 AUDIO
    TITLE "0:"
    INDEX 01 00:58:12
  TRACK 34 AUDIO
    TITLE "16:cjc174_0078"
    INDEX 01 00:58:61
  TRACK 35 AUDIO
    TITLE "0:"
    INDEX 01 01:00:73
  TRACK 36 AUDIO
    TITLE "17:cjc174_0079"
    INDEX 01 01:01:43
  TRACK 37 AUDIO
    TITLE "0:"
    INDEX 01 01:05:55
  TRACK 38 AUDIO
    TITLE "15:cjc174_0080"
    INDEX 01 01:06:27
  TRACK 39 AUDIO
    TITLE "0:"
    INDEX 01 01:07:64
  TRACK 40 AUDIO
    TITLE "16:cjc174_0081"
    INDEX 01 01:08:34
  TRACK 41 AUDIO
    TITLE "0:"
    INDEX 01 01:10:48
  TRACK 42 AUDIO
    TITLE "17:cjc174_0082"
    INDEX 01 01:11:18
  TRACK 43 AUDIO
    TITLE "0:"
    INDEX 01 01:16:10
  TRACK 44 AUDIO
    TITLE "15:cjc174_0083"
    INDEX 01 01:16:60
  TRACK 45 AUDIO
    TITLE "0:"
    INDEX 01 01:19:43
  TRACK 46 AUDIO
    TITLE "16:cjc174_0084"
    INDEX 01 01:20:17
  TRACK 47 AUDIO
    TITLE "0:"
    INDEX 01 01:22:43
  TRACK 48 AUDIO
    TITLE "17:cjc174_0085"
    INDEX 01 01:23:16
  TRACK 49 AUDIO
    TITLE "0:"
    INDEX 01 01:27:64
  TRACK 50 AUDIO
    TITLE "15:cjc174_0086"
    INDEX 01 01:28:34
  TRACK 51 AUDIO
    TITLE "0:"
    INDEX 01 01:29:69
  TRACK 52 AUDIO
    TITLE "16:cjc174_0087"
    INDEX 01 01:30:41
  TRACK 53 AUDIO
    TITLE "0:"
    INDEX 01 01:32:58
  TRACK 54 AUDIO
    TITLE "17:cjc174_0088"
    INDEX 01 01:33:28
  TRACK 55 AUDIO
    TITLE "0:"
    INDEX 01 01:37:18
  TRACK 56 AUDIO
    TITLE "15:cjc174_0089"
    INDEX 01 01:37:69
  TRACK 57 AUDIO
    TITLE "0:"
    INDEX 01 01:39:64
  TRACK 58 AUDIO
    TITLE "16:cjc174_0090"
    INDEX 01 01:40:34
  TRACK 59 AUDIO
    TITLE "0:"
    INDEX 01 01:42:52
  TRACK 60 AUDIO
    TITLE "17:cjc174_0091"
    INDEX 01 01:43:24
  TRACK 61 AUDIO
    TITLE "0:"
    INDEX 01 01:47:06
